<svg width="25" height="23" viewBox="0 0 25 23" fill="none" xmlns="http://www.w3.org/2000/svg">
<path d="M20.9 14.8009C21.3375 13.7384 21.575 12.6009 21.575 11.3509C21.575 10.4509 21.4375 9.58845 21.2 8.78845C20.3875 8.97595 19.5375 9.07595 18.65 9.07595C16.8325 9.0779 15.0411 8.64285 13.4269 7.80747C11.8127 6.9721 10.423 5.76089 9.375 4.27595C8.25495 6.98937 6.13965 9.17175 3.4625 10.3759C3.4125 10.6884 3.4125 11.0259 3.4125 11.3509C3.4125 12.5443 3.64756 13.726 4.10424 14.8286C4.56093 15.9311 5.23031 16.9329 6.07417 17.7768C7.7784 19.481 10.0898 20.4384 12.5 20.4384C13.8125 20.4384 15.075 20.1509 16.2125 19.6384C16.925 21.0009 17.25 21.6759 17.225 21.6759C15.175 22.3634 13.5875 22.7009 12.5 22.7009C9.475 22.7009 6.5875 21.5134 4.4625 19.3759C3.16881 18.0884 2.20784 16.5053 1.6625 14.7634H0V9.07595H1.3625C1.7753 7.06659 2.72437 5.20646 4.10899 3.69294C5.49361 2.17941 7.26214 1.06896 9.22691 0.479394C11.1917 -0.110167 13.2794 -0.156839 15.2686 0.34433C17.2577 0.845498 19.0741 1.87581 20.525 3.32595C22.0997 4.89542 23.1741 6.8963 23.6125 9.07595H25V14.7634H24.925L20.475 18.8509L13.85 18.1009V16.0134H19.8875L20.9 14.8009ZM9.0875 11.0634C9.4625 11.0634 9.825 11.2134 10.0875 11.4884C10.3513 11.7544 10.4993 12.1138 10.4993 12.4884C10.4993 12.8631 10.3513 13.2225 10.0875 13.4884C9.825 13.7509 9.4625 13.9009 9.0875 13.9009C8.3 13.9009 7.6625 13.2759 7.6625 12.4884C7.6625 11.7009 8.3 11.0634 9.0875 11.0634ZM15.9 11.0634C16.6875 11.0634 17.3125 11.7009 17.3125 12.4884C17.3125 13.2759 16.6875 13.9009 15.9 13.9009C15.1125 13.9009 14.475 13.2759 14.475 12.4884C14.475 12.1105 14.6251 11.7481 14.8924 11.4808C15.1596 11.2136 15.5221 11.0634 15.9 11.0634Z" fill="#009CDF"/>
</svg>
